<svg width="225" height="334" viewBox="0 0 225 334" fill="none" xmlns="http://www.w3.org/2000/svg">
<path d="M162.932 315.722C162.309 302.451 152.818 259.818 150.283 248.871C142.515 215.296 137.025 202.284 134.443 197.517C134.015 196.712 133.412 196.013 132.678 195.472C131.944 194.932 131.098 194.563 130.202 194.392C120.67 192.613 87.7016 193.672 74.3325 197.854C73.5044 198.114 72.7411 198.547 72.0933 199.124C71.4455 199.702 70.9281 200.411 70.5755 201.204C69.1424 203.958 67.9975 208.006 67.8512 209.587C67.1662 216.99 66.7256 233.553 71.4637 261.299C76.5146 290.872 87.8084 321.567 91.3509 329.401C91.7903 330.372 92.4736 331.212 93.3341 331.841C94.1946 332.469 95.2031 332.864 96.2616 332.987C106.822 334.178 119.584 333.391 130.206 331.981C144.103 330.137 151.967 328.386 156.117 327.242C159.003 326.445 163.06 318.481 162.932 315.72L162.933 315.722H162.932ZM74.7241 199.106C87.9617 194.964 120.645 193.942 129.961 195.683C130.664 195.817 131.329 196.108 131.905 196.534C132.481 196.959 132.954 197.509 133.29 198.141C144.316 218.513 160.969 302.006 161.563 314.683C161.615 315.788 161.287 316.877 160.633 317.769C159.98 318.661 159.041 319.303 157.972 319.587C153.862 320.721 146.06 322.458 132.238 324.29C115.248 326.545 103.876 325.887 98.6091 325.293C97.7766 325.195 96.9836 324.883 96.3069 324.388C95.6302 323.893 95.0929 323.232 94.747 322.469C91.2221 314.674 79.9852 284.129 74.958 254.686C70.2461 227.089 70.6797 210.655 71.3577 203.315C71.4392 202.359 71.8025 201.449 72.4016 200.7C73.0008 199.951 73.8087 199.396 74.7232 199.107L74.7241 199.106Z" fill="#FF9214"/>
<path d="M97.0762 305.625C96.1311 305.514 95.2307 305.16 94.4623 304.599C93.6939 304.038 93.0834 303.288 92.6902 302.421C79.5104 273.277 72.6787 228.713 74.7758 206.042C74.8693 204.958 75.2824 203.926 75.9627 203.077C76.6431 202.228 77.5601 201.6 78.5976 201.273C90.4512 197.565 119.529 196.672 127.837 198.222C128.637 198.374 129.393 198.704 130.049 199.187C130.705 199.67 131.243 200.295 131.625 201.015C140.36 217.145 152.956 275.139 153.884 295.002C153.943 296.254 153.572 297.489 152.832 298.501C152.092 299.513 151.029 300.242 149.817 300.566C137.437 303.98 112.657 307.383 97.0744 305.627L97.0762 305.625ZM78.9892 202.522C78.1986 202.772 77.5001 203.252 76.9823 203.9C76.4646 204.548 76.1509 205.335 76.0809 206.161C74.0189 228.474 80.7017 272.728 93.885 301.88C94.1834 302.54 94.6476 303.112 95.2324 303.54C95.8173 303.968 96.5028 304.237 97.2225 304.321C113.363 306.139 138.633 302.287 149.471 299.297C150.395 299.05 151.207 298.495 151.772 297.724C152.336 296.953 152.621 296.012 152.577 295.057C151.684 275.941 139.215 217.773 130.473 201.632C130.184 201.085 129.775 200.61 129.277 200.242C128.779 199.874 128.205 199.622 127.597 199.505C119.38 197.972 90.615 198.883 78.99 202.52L78.9883 202.521L78.9892 202.522Z" fill="#FF9214"/>
<path d="M122.513 316.735C120.032 311.784 124.858 306.366 130.169 308.195C133.46 309.329 135.233 312.875 134.121 316.1C132.34 321.268 125.014 321.728 122.513 316.734V316.735ZM128.083 309.155C124.421 309.155 122.057 312.901 123.685 316.148C125.638 320.049 131.461 319.8 132.882 315.675C133.975 312.503 131.515 309.155 128.083 309.155Z" fill="#FF9214"/>
<path d="M164.025 257.308C161.381 238.352 155.981 214.783 147.811 197.475C147.608 197.043 147.001 197.041 146.692 197.329C143.447 200.382 126.724 216.103 123.619 219.3C123.214 219.038 122.763 218.859 122.289 218.771C116.844 217.755 98.0082 218.34 90.2953 220.754C89.5262 220.995 88.8763 221.467 88.4094 222.085C81.674 218.801 64.9483 214.319 56.7527 212.566C56.5451 212.514 56.3256 212.545 56.1396 212.65C55.9535 212.756 55.8152 212.929 55.7533 213.134C54.6557 216.576 54.7678 220.319 54.7765 223.895C54.8249 240.246 57.7837 256.457 63.5143 271.771C64.0215 273.131 64.442 274.847 65.4397 275.951C66.1913 276.782 67.352 277.147 68.3672 277.539C68.5503 277.611 99.3774 289.83 101.815 288.682C101.973 288.722 102.137 288.753 102.305 288.771C114.84 290.174 134.458 286.375 136.991 285.332C137.153 285.343 137.316 285.307 137.459 285.23C146.417 280.667 154.833 273.279 161.49 265.703C164.901 261.82 164.707 262.203 164.022 257.306H164.026L164.025 257.308ZM102.453 287.469C102.027 287.418 101.622 287.258 101.276 287.005C100.93 286.751 100.655 286.413 100.478 286.022C92.0061 267.292 87.6359 238.581 88.9691 224.16C89.062 223.149 89.7382 222.302 90.6904 222.006C98.2053 219.655 116.865 219.092 122.054 220.061C122.774 220.196 123.394 220.655 123.756 221.321C129.283 231.528 137.446 269.039 138.04 281.714C138.066 282.28 137.897 282.838 137.562 283.295C137.227 283.752 136.745 284.08 136.198 284.226C128.848 286.253 112.737 288.627 102.455 287.471V287.469H102.453Z" fill="#FF9214"/>
<path d="M112.449 278.986C117.465 271.801 114.279 260.478 110.274 252.684C101.197 235.02 84.1338 224.709 71.2299 207.139C57.09 187.884 50.2241 165.325 56.1133 142.173C56.2981 141.457 55.2741 141.2 55.0227 141.873C51.5188 151.13 51.9822 163.49 54.0267 173.341C58.4425 194.589 70.6544 210.847 85.9602 225.713C96.5857 236.032 109.288 247.423 113.447 263.081C114.754 268.001 115.366 274.484 112.329 278.918C112.276 278.992 112.397 279.058 112.446 278.986H112.449Z" fill="#FF9214"/>
<path d="M84.3203 75.4174C75.8445 58.3351 55.7795 54.3065 39.8868 68.7924C26.2892 81.1865 27.879 100.439 35.4833 114.02C40.1829 122.408 46.9016 129.463 53.9531 136.546C54.0302 136.625 54.1161 136.695 54.208 136.761C53.8585 137.641 53.3049 138.861 52.6348 139.53C52.494 139.672 52.4057 139.857 52.3847 140.055C52.3637 140.254 52.4111 140.453 52.5192 140.621C54.8852 144.308 60.5614 143.877 60.9898 140.691C61.1869 139.23 60.1436 137.877 59.6793 136.706C59.8335 136.619 59.9728 136.53 60.0954 136.43C80.8708 119.647 96.1442 99.2543 84.3203 75.42V75.4174ZM59.2571 140.456C59.1065 141.585 56.2149 142.186 54.3762 140.177C55.0034 139.338 55.4948 138.27 55.8619 137.325C56.5591 137.412 57.3212 137.381 58.0185 137.255C58.3943 138.247 59.3622 139.677 59.2571 140.456ZM58.9952 135.068C58.128 135.767 55.6332 135.755 55.1926 135.313C48.2304 128.319 41.6002 121.362 37.0093 113.166C29.7396 100.185 28.1734 81.8304 41.0632 70.0827C55.9731 56.4868 74.7267 60.0135 82.7532 76.1926C94.2118 99.2919 79.1513 118.784 58.9952 135.068Z" fill="#FF9214"/>
<path d="M62.5928 65.6889C73.9524 68.1022 82.8925 80.7634 80.7219 96.2208C79.8599 102.361 78.0922 104.853 77.4081 107.732C77.2539 108.378 78.051 108.637 78.4181 108.159C79.5367 106.699 80.1709 104.735 80.735 103.003C82.5597 97.3955 83.0187 91.742 82.1471 86.4625C79.8993 72.8403 69.2537 65.1073 62.599 65.6372C62.5709 65.639 62.5587 65.6828 62.5919 65.6898L62.5928 65.6889Z" fill="#FF9214"/>
<path d="M75.8234 110.312C75.36 110.697 74.9203 111.326 74.6908 111.747C74.2134 112.622 75.4529 113.278 75.9522 112.485C76.1064 112.242 76.2246 111.981 76.3508 111.723C77.0936 110.202 76.2579 109.952 75.8234 110.312Z" fill="#FF9214"/>
<path d="M161.25 209.336C156.631 223.775 149.697 234.208 139.758 245.123C130.066 255.768 114.247 270.905 113.104 287.72C113.067 288.265 113.971 288.398 114.07 287.851C119.943 255.09 149.864 249.227 162.168 209.854C161.848 209.706 161.542 209.533 161.25 209.336Z" fill="#FF9214"/>
<path d="M224.462 137.578C222.949 126.556 217.414 117.434 208.88 111.89C197.136 104.264 182.109 106.326 171.963 110.798C149.849 120.546 143.782 145.204 147.579 165.315C150.66 181.631 159.387 196.966 161.621 202.134C160.664 203.24 159.497 204.145 158.189 204.799C158.011 204.888 157.868 205.035 157.785 205.216C157.701 205.397 157.682 205.601 157.731 205.795C159.117 211.291 166.081 212.866 167.79 209.392C168.738 207.466 167.326 205.493 167.367 203.979C167.585 203.909 167.814 203.832 168.05 203.745C201.155 191.547 229.265 172.53 224.463 137.577L224.462 137.578ZM166.22 208.622C165.397 210.294 161.056 209.611 159.63 206.009C160.736 205.371 161.742 204.573 162.614 203.641C163.44 204.401 164.509 204.525 165.63 204.384C165.758 206.04 166.729 207.587 166.22 208.622ZM204.354 182.403C194.735 190.111 183.007 196.373 167.445 202.107C164.001 203.377 163.569 202.306 163.153 201.273C161.608 197.432 152.42 181.546 149.295 164.99C145.627 145.556 151.431 121.758 172.667 112.395C196.065 102.082 219.301 112.85 222.733 137.815C225.183 155.661 219.001 170.666 204.354 182.402L204.354 182.403Z" fill="#FF9214"/>
<path d="M202.905 115.971C216.123 123.089 222.711 143.735 212.434 163.052C208.918 169.658 206.183 171.771 203.904 175.026C203.597 175.465 204.22 176.114 204.661 175.783C206.466 174.431 207.934 172.58 209.296 170.797C213.52 165.265 216.671 158.903 218.09 152.064C221.924 133.58 211.999 118.486 202.926 115.924C202.896 115.913 202.877 115.956 202.905 115.971Z" fill="#FF9214"/>
<path d="M200.702 177.23C200.03 177.56 199.222 178.182 198.763 178.6C198.143 179.165 198.95 180.335 199.796 179.632C200.395 179.134 200.946 178.556 201.382 177.909C201.646 177.518 201.199 176.985 200.701 177.228L200.702 177.23Z" fill="#FF9214"/>
<path d="M105.05 208.573C99.5701 194.211 96.9343 178.33 99.1085 163.048C101.46 146.516 109.978 133.354 117.439 120.155C117.065 119.97 116.707 119.756 116.368 119.514C109.32 131.652 101.321 143.869 98.3455 158.844C96.3711 168.779 96.4928 179.014 98.1738 188.981C103.165 218.568 116.582 223.935 114.143 254.506C114.109 254.908 114.782 255.004 114.852 254.602C118.386 234.322 109.158 219.338 105.052 208.575L105.05 208.573V208.573Z" fill="#FF9214"/>
<path d="M201.973 42.0946C201.762 28.6941 196.469 16.9789 187.071 9.11091C174.133 -1.71344 155.854 -1.4235 143.064 2.45267C115.182 10.9058 104.338 39.5482 105.963 64.1813C106.973 79.516 111.678 93.8881 117.268 109.744C117.358 109.997 117.449 110.235 117.546 110.461C116.186 111.73 114.58 112.708 112.827 113.334C112.639 113.401 112.48 113.529 112.375 113.699C112.27 113.869 112.226 114.069 112.251 114.267C113.078 120.779 120.955 123.837 123.474 119.974C124.917 117.762 123.365 115.291 123.749 113.351C124.274 113.253 124.828 113.13 125.413 112.988C166.685 103.116 202.639 84.354 201.972 42.0929L201.973 42.0946ZM122.012 119.02C120.659 121.093 115.236 119.491 114.109 114.714C115.69 114.062 117.15 113.151 118.431 112.02C119.35 113.208 120.49 113.604 121.963 113.568C121.8 115.623 122.853 117.729 122.012 119.02ZM171.57 93.1479C159.009 100.932 144.212 106.696 125.006 111.291C120.947 112.261 119.977 112.184 118.914 109.166C113.371 93.4343 108.699 79.1814 107.705 64.0701C106.128 40.1255 116.604 12.3021 143.568 4.12752C157.473 -0.0893971 174.434 0.818985 185.947 10.4538C194.952 17.9906 200.022 29.238 200.224 42.1244C200.57 63.9842 190.929 81.1523 171.57 93.1496L171.57 93.1479Z" fill="#FF9214"/>
<path d="M179.423 12.9976C194.174 22.9486 199.499 48.9746 184.103 71.0674C179.215 78.0804 175.341 80.7206 172.149 84.0816C171.726 84.5275 172.27 85.2861 172.819 84.9506C175.139 83.5333 177.179 81.5291 179.063 79.5853C184.627 73.8477 189.186 67.0344 191.966 59.2891C199.712 37.7245 190.168 17.6552 179.447 12.9512C179.416 12.9372 179.389 12.9792 179.419 12.9985L179.423 12.9976Z" fill="#FF9214"/>
<path d="M167.971 86.3117C167.095 86.6682 166.263 87.1257 165.493 87.6747C164.614 88.2967 165.523 89.396 166.23 88.9361C167.039 88.4244 167.784 87.8197 168.452 87.1343C168.843 86.7217 168.361 86.1549 167.971 86.3117Z" fill="#FF9214"/>
<path d="M37.2063 157.953C36.8341 157.953 33.1822 156.613 30.8994 155.096C30.788 155.021 30.6952 154.922 30.6279 154.807C30.5607 154.691 30.5208 154.562 30.5113 154.428C30.2389 150.522 31.9865 146.707 35.069 144.468C35.775 143.952 36.3689 144.001 37.103 144.479L42.725 148.125C42.8677 148.217 42.9802 148.35 43.0487 148.506C43.1171 148.662 43.1386 148.834 43.1104 149.002C43.0822 149.17 43.0056 149.326 42.89 149.451C42.7744 149.576 42.6248 149.665 42.4595 149.706C41.1754 150.024 40.013 151.051 39.2631 152.521C38.5396 153.947 38.2636 155.604 38.0744 157.182C38.0491 157.395 37.9467 157.591 37.7865 157.733C37.6263 157.875 37.4205 157.953 37.2063 157.953ZM32.2344 153.876C33.5711 154.707 35.0742 155.353 36.4863 155.886C36.9269 153.004 37.9141 150.241 40.4063 148.704L36.0807 145.899C34.8494 146.825 33.8578 148.032 33.1889 149.42C32.52 150.808 32.1933 152.336 32.2361 153.876H32.2344Z" fill="#FF9214"/>
<path d="M6.98717 204.716C6.16551 201.691 3.7277 199.518 0.774804 199.183C0.645704 199.168 0.521519 199.125 0.41129 199.056C0.30106 198.987 0.207558 198.895 0.137583 198.785C0.0676079 198.676 0.0229202 198.552 0.00677439 198.423C-0.00937147 198.294 0.0034311 198.163 0.0442466 198.04C0.272875 197.35 0.582092 196.7 0.883425 196.069C1.83385 194.073 1.68406 193.814 2.18687 193.346C3.2792 192.319 6.88468 192.417 10.1135 196.578C11.1095 197.857 11.1901 198.642 10.7179 200.034C10.1503 201.712 9.43726 203.352 8.59633 204.903C8.51299 205.056 8.38577 205.181 8.23103 205.261C8.07628 205.341 7.90107 205.374 7.7279 205.354C7.55472 205.334 7.3915 205.262 7.2592 205.149C7.12689 205.035 7.03155 204.885 6.98542 204.716L6.98717 204.716ZM2.07649 197.643C4.59666 198.263 6.71475 199.974 7.92709 202.334C8.35544 201.401 8.73473 200.444 9.06322 199.475C9.35317 198.613 9.34266 198.433 8.73298 197.65C6.35648 194.585 4.06144 194.313 3.35366 194.643C3.16532 195.44 2.45404 196.798 2.07474 197.645L2.07649 197.643Z" fill="#FF9214"/>
<path d="M84.9353 158.619C83.1544 157.029 81.8527 155.319 80.9522 153.397C80.896 153.277 80.8678 153.146 80.8699 153.014C80.8721 152.881 80.9044 152.751 80.9645 152.633C82.6998 149.196 85.9313 146.571 89.8267 145.434C89.9991 145.383 90.1829 145.387 90.3529 145.445C90.523 145.503 90.6711 145.612 90.7771 145.757C91.7784 147.13 92.6705 148.579 93.4453 150.091C93.4986 150.196 93.5302 150.311 93.5382 150.428C93.5463 150.546 93.5306 150.664 93.4921 150.775C93.4536 150.886 93.3931 150.988 93.3141 151.076C93.2352 151.163 93.1395 151.234 93.0327 151.283C89.9932 152.693 87.5978 155.198 86.3254 158.298C86.2725 158.428 86.1892 158.542 86.0827 158.633C85.9762 158.724 85.8494 158.787 85.7131 158.819C85.5769 158.85 85.435 158.849 85.2995 158.814C85.164 158.779 85.0388 158.713 84.9344 158.62L84.9353 158.619ZM82.7243 153.044C83.3801 154.314 84.2264 155.476 85.234 156.49C86.6249 153.782 88.8004 151.557 91.4761 150.106C90.9436 149.14 90.3603 148.202 89.7286 147.298C86.7021 148.332 84.1907 150.391 82.7226 153.044H82.7243Z" fill="#FF9214"/>
<path d="M129.406 145.445C127.286 145.445 123.497 140.857 124.743 135.959C124.777 135.826 124.841 135.703 124.932 135.6C125.022 135.497 125.135 135.416 125.262 135.365C127.27 134.559 129.368 133.997 131.51 133.689C131.639 133.67 131.771 133.681 131.896 133.719C132.021 133.758 132.135 133.824 132.231 133.913C132.327 134.002 132.402 134.111 132.45 134.233C132.498 134.354 132.518 134.485 132.509 134.615C132.188 139.282 132.952 139.823 133.696 141.069C134.848 143.002 132.857 143.75 130.649 145.037C130.252 145.265 129.878 145.448 129.408 145.448H129.406L129.406 145.445ZM126.346 136.816C125.896 139.301 126.961 141.992 129.026 143.492C129.299 143.687 129.406 143.697 129.406 143.697C129.53 143.692 132.189 142.159 132.286 141.995C132.26 142.036 132.14 141.875 132.064 141.769C130.74 139.939 130.6 137.884 130.701 135.596C129.18 135.881 127.722 136.29 126.344 136.82L126.346 136.817V136.816Z" fill="#FF9214"/>
<path d="M201.575 229.22C201.424 229.204 201.281 229.149 201.157 229.061C201.034 228.972 200.936 228.854 200.873 228.716C200.81 228.579 200.783 228.427 200.796 228.276C200.809 228.125 200.86 227.98 200.946 227.855C202.374 225.779 202.555 223.055 201.399 221.078C201.331 220.962 201.291 220.831 201.281 220.697C201.272 220.563 201.294 220.428 201.345 220.304C201.396 220.179 201.475 220.069 201.577 219.98C201.678 219.891 201.798 219.827 201.928 219.792C202.992 219.509 204.262 219.322 205.271 219.054C206.239 218.794 206.859 219.177 207.146 220.029C208.019 222.651 208.039 225.482 207.202 228.115C207.16 228.247 207.087 228.366 206.99 228.464C206.893 228.562 206.774 228.636 206.643 228.68C205.011 229.212 203.285 229.395 201.577 229.217L201.575 229.22ZM203.41 221.244C204.172 223.219 204.069 225.5 203.132 227.534C203.99 227.51 204.841 227.381 205.667 227.151C206.238 225.063 206.199 222.855 205.554 220.788C204.775 220.978 204.072 221.106 203.41 221.243V221.244Z" fill="#FF9214"/>
<path d="M126.954 185.11C124.152 185.11 122.59 182.602 121.502 180.043C121.431 179.878 121.413 179.695 121.45 179.519C121.487 179.344 121.578 179.184 121.709 179.061C121.84 178.939 122.006 178.859 122.184 178.834C122.361 178.809 122.543 178.839 122.703 178.921C124.209 179.687 125.887 179.267 127.03 178.777C128.377 178.204 129.645 177.121 130.699 175.646C130.778 175.535 130.882 175.444 131.002 175.38C131.123 175.317 131.256 175.282 131.393 175.28C131.529 175.277 131.664 175.307 131.787 175.366C131.91 175.425 132.017 175.512 132.1 175.619L135.218 179.647C135.488 179.997 135.455 180.493 135.141 180.803C133.121 182.802 129.378 185.109 126.955 185.109L126.954 185.11ZM123.936 181.064C125.371 183.567 126.778 183.691 128.679 182.954C130.393 182.285 131.974 181.316 133.348 180.091L131.404 177.578C129.124 180.246 126.228 181.283 123.936 181.064Z" fill="#FF9214"/>
</svg>
