<svg width="86" height="28" viewBox="0 0 86 28" fill="none" xmlns="http://www.w3.org/2000/svg">
<path d="M37.0348 27.5961H30.1116L34.4419 0.491333H41.3648L37.0348 27.5961Z" fill="#FF9214"/>
<path d="M62.1322 1.15396C60.7666 0.605531 58.6007 0 55.9225 0C49.0856 0 44.2711 3.69067 44.2415 8.96721C44.1848 12.8602 47.6886 15.0225 50.3092 16.3206C52.9877 17.647 53.8982 18.5127 53.8982 19.695C53.871 21.5109 51.7338 22.3479 49.7406 22.3479C46.9765 22.3479 45.4954 21.9163 43.2447 20.9061L42.3331 20.473L41.3643 26.5575C42.988 27.3063 45.9796 27.9709 49.0856 28C56.35 28 61.0793 24.3664 61.1353 18.7435C61.163 15.6579 59.3128 13.2937 55.324 11.3617C52.9025 10.1215 51.4196 9.2853 51.4196 8.01637C51.448 6.8628 52.6739 5.68125 55.4073 5.68125C57.658 5.62338 59.3117 6.17104 60.5644 6.71908L61.1906 7.0069L62.1322 1.15396Z" fill="#FF9214"/>
<path d="M71.3338 17.9938C71.9039 16.4367 74.0978 10.4101 74.0978 10.4101C74.0691 10.468 74.6669 8.82427 75.0087 7.81518L75.4926 10.1507C75.4926 10.1507 76.8036 16.6387 77.0883 17.9938C76.0063 17.9938 72.7012 17.9938 71.3338 17.9938ZM79.8797 0.491333H74.5245C72.8731 0.491333 71.6185 0.981122 70.9059 2.74023L60.6223 27.5957H67.8867C67.8867 27.5957 69.0827 24.2503 69.3397 23.5298C70.1367 23.5298 77.2034 23.5298 78.2286 23.5298C78.4274 24.4814 79.0547 27.5957 79.0547 27.5957H85.465L79.8797 0.491333Z" fill="#FF9214"/>
<path d="M24.329 0.491333L17.5489 18.9742L16.808 15.2256C15.5545 10.9003 11.6232 6.20094 7.23608 3.86429L13.4465 27.5673H20.7676L31.6498 0.491333H24.329Z" fill="#FF9214"/>
<path d="M11.2528 0.491333H0.113955L0 1.03899C8.68902 3.28827 14.4436 8.71006 16.8079 15.2268L14.3864 2.76973C13.9878 1.03861 12.7626 0.548437 11.2528 0.491333Z" fill="#FF9214"/>
</svg>
