<svg width="27" height="11" viewBox="0 0 27 11" fill="none" xmlns="http://www.w3.org/2000/svg">
<path d="M3.71637 0C1.54618 0 0 1.48377 0 3.5153V3.52916C0 5.42895 1.3451 6.82952 3.26569 6.82952C4.63853 6.82952 5.51215 6.12923 5.87963 5.33881H6.0183C6.0183 5.41508 6.01136 5.49135 6.01136 5.56762C5.93509 7.48127 5.26254 9.03438 3.67477 9.03438C2.79421 9.03438 2.17713 8.57677 1.91365 7.87648L1.89285 7.80714H0.131737L0.145604 7.88341C0.464546 9.41572 1.83738 10.5043 3.67477 10.5043C6.19163 10.5043 7.71008 8.50743 7.71008 5.13774V5.12387C7.71008 1.51844 5.85189 0 3.71637 0ZM3.70943 5.45668C2.57234 5.45668 1.74725 4.62466 1.74725 3.46676V3.45289C1.74725 2.3366 2.6278 1.45604 3.73023 1.45604C4.8396 1.45604 5.70629 2.35046 5.70629 3.49449V3.50836C5.70629 4.63853 4.8396 5.45668 3.70943 5.45668Z" fill="black"/>
<path d="M10.5739 3.77184C11.2118 3.77184 11.6763 3.28649 11.6763 2.67634C11.6763 2.05926 11.2118 1.58084 10.5739 1.58084C9.94295 1.58084 9.47147 2.05926 9.47147 2.67634C9.47147 3.28649 9.94295 3.77184 10.5739 3.77184ZM10.5739 8.91651C11.2118 8.91651 11.6763 8.43809 11.6763 7.82101C11.6763 7.20393 11.2118 6.72552 10.5739 6.72552C9.94295 6.72552 9.47147 7.20393 9.47147 7.82101C9.47147 8.43809 9.94295 8.91651 10.5739 8.91651Z" fill="black"/>
<path d="M18.2912 10.2547H20.0038V8.33409H21.3489V6.85725H20.0038V0.249607H17.473C16.1141 2.3158 14.6927 4.61773 13.3961 6.87112V8.33409H18.2912V10.2547ZM15.0602 6.89885V6.79485C16.0309 5.09614 17.1888 3.24489 18.2149 1.67791H18.3189V6.89885H15.0602Z" fill="black"/>
<path d="M25.2111 10.2547H27V0.249607H25.218L22.6041 2.08699V3.77184L25.0932 2.01072H25.2111V10.2547Z" fill="black"/>
</svg>
