<svg width="100" height="100" viewBox="0 0 100 100" fill="none" xmlns="http://www.w3.org/2000/svg">
<path d="M50.0001 38.235C49.9973 41.7244 49.2192 45.1695 47.7218 48.3213C46.2245 51.4731 44.0454 54.2527 41.3422 56.4592C38.639 58.6656 35.4792 60.2437 32.0913 61.0794C28.7035 61.915 25.1723 61.9873 21.7531 61.291" stroke="#FF9214" stroke-width="1.5" stroke-linecap="round" stroke-linejoin="round"/>
<path d="M21.767 49.533V38.233C21.7675 30.7453 24.7422 23.5644 30.0368 18.2698C35.3314 12.9752 42.5123 10.0005 50 10C53.708 9.99974 57.3798 10.7299 60.8056 12.1487C64.2315 13.5675 67.3443 15.6472 69.9664 18.2691C72.5885 20.891 74.6685 24.0037 76.0875 27.4295C77.5066 30.8552 78.237 34.527 78.237 38.235C78.0987 46.4397 76.0022 54.4925 72.122 61.723" stroke="#FF9214" stroke-width="1.5" stroke-linecap="round" stroke-linejoin="round"/>
<path d="M61.541 58.484C66.5703 61.4553 72.5227 62.4558 78.247 61.292" stroke="#FF9214" stroke-width="1.5" stroke-linecap="round" stroke-linejoin="round"/>
<path d="M58.413 63.194C62.9695 65.9611 68.2 67.4205 73.531 67.412C74.9363 67.412 76.3399 67.3118 77.731 67.112" stroke="#FF9214" stroke-width="1.5" stroke-linecap="round" stroke-linejoin="round"/>
<path d="M54.576 67.453C60.2164 71.1218 66.8025 73.0696 73.531 73.059C74.335 73.059 75.1324 73.032 75.923 72.978" stroke="#FF9214" stroke-width="1.5" stroke-linecap="round" stroke-linejoin="round"/>
<path d="M50 77.7469C44.2882 80.7887 38.0132 82.6266 31.563 83.1469" stroke="#FF9214" stroke-width="1.5" stroke-linecap="round" stroke-linejoin="round"/>
<path d="M50 77.7469C55.7118 80.7887 61.9867 82.6266 68.437 83.1469" stroke="#FF9214" stroke-width="1.5" stroke-linecap="round" stroke-linejoin="round"/>
<path d="M61.2001 87.693C57.3391 87.0529 53.5755 85.9235 50 84.332C46.4247 85.9236 42.661 87.0531 38.8 87.693" stroke="#FF9214" stroke-width="1.5" stroke-linecap="round" stroke-linejoin="round"/>
<path d="M46.2371 90H53.7671" stroke="#FF9214" stroke-width="1.5" stroke-linecap="round" stroke-linejoin="round"/>
<path d="M27.4139 50.154V38.235C27.4139 32.2446 29.7935 26.4996 34.0291 22.2636C38.2647 18.0275 44.0096 15.6475 49.9999 15.647C52.9664 15.6467 55.9039 16.2308 58.6446 17.3658C61.3853 18.5008 63.8757 20.1646 65.9734 22.2621C68.0711 24.3597 69.7351 26.8498 70.8703 29.5905C72.0056 32.3311 72.5899 35.2685 72.5899 38.235C72.4392 46.1165 70.2605 53.8262 66.2639 60.621" stroke="#FF9214" stroke-width="1.5" stroke-linecap="round" stroke-linejoin="round"/>
<path d="M33.061 48.5469V38.2349C33.061 33.7423 34.8456 29.4336 38.0222 26.2566C41.1988 23.0796 45.5073 21.2945 50 21.2939C52.2249 21.2937 54.4281 21.7317 56.4837 22.5829C58.5393 23.4342 60.4071 24.682 61.9804 26.2551C63.5537 27.8283 64.8018 29.6959 65.6533 31.7514C66.5047 33.8069 66.943 36.0101 66.943 38.2349C66.45 59.8799 51.326 77.3269 27.38 78.6629" stroke="#FF9214" stroke-width="1.5" stroke-linecap="round" stroke-linejoin="round"/>
<path d="M49.985 71.207C56.6759 75.7545 64.5066 78.3374 72.59 78.663" stroke="#FF9214" stroke-width="1.5" stroke-linecap="round" stroke-linejoin="round"/>
<path d="M21.767 49.533C23.6268 50.3062 25.6487 50.6084 27.6534 50.4131C29.658 50.2177 31.5835 49.5307 33.2591 48.4131C34.9347 47.2954 36.3087 45.7816 37.2591 44.0058C38.2096 42.2301 38.7073 40.2472 38.708 38.233C38.7101 35.2389 39.9005 32.3679 42.0177 30.2507C44.1349 28.1335 47.0058 26.9432 50 26.941C51.4836 26.9403 52.9529 27.2318 54.3238 27.799C55.6948 28.3662 56.9405 29.198 57.9899 30.2469C59.0393 31.2957 59.8717 32.541 60.4397 33.9116C61.0076 35.2823 61.3 36.7514 61.3 38.235C61.3001 42.8085 60.3993 47.3372 58.6491 51.5625C56.8989 55.7878 54.3335 59.6269 51.0995 62.8607C47.8654 66.0945 44.0261 68.6595 39.8006 70.4094C35.5752 72.1592 31.0464 73.0596 26.473 73.059C25.669 73.059 24.8716 73.032 24.081 72.978" stroke="#FF9214" stroke-width="1.5" stroke-linecap="round" stroke-linejoin="round"/>
<path d="M21.845 55.513C24.4946 56.2192 27.271 56.3073 29.96 55.7703C32.6491 55.2334 35.1788 54.0858 37.354 52.4162C39.5292 50.7466 41.2917 48.5995 42.5056 46.1407C43.7195 43.6819 44.3522 40.9771 44.355 38.235C44.355 36.7377 44.9496 35.3016 46.0082 34.2427C47.0668 33.1837 48.5026 32.5885 50 32.588C51.4976 32.588 52.934 33.183 53.993 34.242C55.052 35.301 55.647 36.7373 55.647 38.235C55.6472 45.9728 52.5737 53.3938 47.1026 58.8655C41.6314 64.3372 34.2108 67.4115 26.473 67.412C25.0676 67.412 23.6641 67.3118 22.273 67.112" stroke="#FF9214" stroke-width="1.5" stroke-linecap="round" stroke-linejoin="round"/>
</svg>
