<svg width="100" height="100" viewBox="0 0 100 100" fill="none" xmlns="http://www.w3.org/2000/svg">
<path d="M66.709 10C66.2478 10 65.8054 10.1832 65.4793 10.5093C65.1532 10.8355 64.97 11.2778 64.97 11.739V15.217C64.9698 15.4455 65.0147 15.6717 65.1021 15.8828C65.1894 16.0939 65.3175 16.2857 65.479 16.4473C65.6405 16.6089 65.8322 16.7371 66.0433 16.8245C66.2543 16.912 66.4805 16.957 66.709 16.957H78.883C79.1117 16.957 79.3381 17.0021 79.5494 17.0898C79.7606 17.1774 79.9525 17.3058 80.114 17.4678C80.2756 17.6297 80.4036 17.8218 80.4907 18.0333C80.5779 18.2447 80.6225 18.4713 80.622 18.7V30.87C80.622 31.3312 80.8052 31.7735 81.1313 32.0997C81.4574 32.4258 81.8998 32.609 82.361 32.609H85.839C86.3002 32.609 86.7425 32.4258 87.0686 32.0997C87.3948 31.7735 87.578 31.3312 87.578 30.87V13.478C87.578 13.0213 87.488 12.569 87.3132 12.147C87.1384 11.7251 86.8823 11.3416 86.5593 11.0187C86.2363 10.6957 85.8529 10.4395 85.4309 10.2647C85.009 10.09 84.5567 10 84.1 10H66.709Z" stroke="#FF9214" stroke-width="1.5" stroke-linecap="round" stroke-linejoin="round"/>
<path d="M66.335 90C65.8745 89.9989 65.4332 89.8153 65.1079 89.4892C64.7826 89.1632 64.6 88.7215 64.6 88.261V84.783C64.5998 84.5545 64.6447 84.3283 64.7321 84.1172C64.8194 83.9061 64.9475 83.7143 65.109 83.5527C65.2705 83.3911 65.4622 83.2629 65.6733 83.1755C65.8843 83.088 66.1105 83.043 66.339 83.043H78.509C78.7377 83.043 78.9641 82.9979 79.1754 82.9102C79.3866 82.8226 79.5785 82.6941 79.7401 82.5322C79.9016 82.3703 80.0296 82.1782 80.1168 81.9667C80.2039 81.7553 80.2485 81.5287 80.248 81.3V69.13C80.248 68.6688 80.4312 68.2265 80.7573 67.9003C81.0834 67.5742 81.5258 67.391 81.987 67.391H85.465C85.9255 67.3921 86.3668 67.5757 86.692 67.9017C87.0173 68.2278 87.2 68.6695 87.2 69.13V86.522C87.2 87.4437 86.8341 88.3278 86.1827 88.9799C85.5313 89.632 84.6477 89.9989 83.726 90H66.335Z" stroke="#FF9214" stroke-width="1.5" stroke-linecap="round" stroke-linejoin="round"/>
<path d="M33.291 10C33.7522 10 34.1945 10.1832 34.5207 10.5093C34.8468 10.8355 35.03 11.2778 35.03 11.739V15.217C35.0301 15.4455 34.9852 15.6717 34.8979 15.8828C34.8106 16.0939 34.6825 16.2857 34.521 16.4473C34.3595 16.6089 34.1678 16.7371 33.9567 16.8245C33.7457 16.912 33.5194 16.957 33.291 16.957H21.117C20.8883 16.957 20.6618 17.0021 20.4506 17.0898C20.2393 17.1774 20.0475 17.3058 19.8859 17.4678C19.7244 17.6297 19.5964 17.8218 19.5092 18.0333C19.4221 18.2447 19.3775 18.4713 19.378 18.7V30.87C19.378 31.0984 19.333 31.3245 19.2456 31.5355C19.1582 31.7465 19.0301 31.9382 18.8687 32.0997C18.7072 32.2611 18.5155 32.3892 18.3045 32.4766C18.0935 32.564 17.8674 32.609 17.639 32.609H14.161C13.6998 32.609 13.2575 32.4258 12.9313 32.0997C12.6052 31.7735 12.422 31.3312 12.422 30.87V13.478C12.422 12.5556 12.7884 11.6709 13.4407 11.0187C14.0929 10.3664 14.9776 10 15.9 10H33.291Z" stroke="#FF9214" stroke-width="1.5" stroke-linecap="round" stroke-linejoin="round"/>
<path d="M33.6651 90C34.1256 89.9989 34.5669 89.8153 34.8921 89.4892C35.2174 89.1632 35.4001 88.7215 35.4001 88.261V84.783C35.4002 84.5545 35.3553 84.3283 35.268 84.1172C35.1806 83.9061 35.0526 83.7143 34.8911 83.5527C34.7296 83.3911 34.5378 83.2629 34.3268 83.1755C34.1157 83.088 33.8895 83.043 33.661 83.043H21.491C21.2623 83.043 21.0359 82.9979 20.8246 82.9102C20.6134 82.8226 20.4215 82.6941 20.26 82.5322C20.0984 82.3703 19.9704 82.1782 19.8833 81.9667C19.7961 81.7553 19.7515 81.5287 19.752 81.3V69.13C19.752 68.6688 19.5688 68.2265 19.2427 67.9003C18.9166 67.5742 18.4743 67.391 18.013 67.391H14.535C14.0745 67.3921 13.6332 67.5757 13.308 67.9017C12.9827 68.2278 12.8 68.6695 12.8 69.13V86.522C12.8 87.4437 13.1659 88.3278 13.8173 88.9799C14.4687 89.632 15.3523 89.9989 16.274 90H33.6651Z" stroke="#FF9214" stroke-width="1.5" stroke-linecap="round" stroke-linejoin="round"/>
</svg>
