<svg width="333" height="306" viewBox="0 0 333 306" fill="none" xmlns="http://www.w3.org/2000/svg">
<path d="M89.3234 29.5247C90.0991 29.5247 92.5931 28.9732 98.4189 28.4418C98.6489 28.4161 98.8594 28.3002 99.0041 28.1195C99.1488 27.9388 99.2158 27.7081 99.1905 27.478C98.4019 25.9464 97.5129 24.4686 96.5293 23.0544C95.7107 21.8314 95.2373 21.0357 94.858 20.5373C94.0093 19.4164 92.7483 19.6956 92.5111 20.4392C92.1968 21.0297 93.5779 18.3595 88.6929 28.0114C88.5725 28.137 88.4914 28.2949 88.4594 28.4659C88.4275 28.6369 88.4461 28.8135 88.5131 28.974C88.58 29.1345 88.6923 29.2721 88.8363 29.3697C88.9802 29.4673 89.1495 29.5218 89.3234 29.5247ZM93.728 21.7653C93.8261 21.9034 95.7017 24.8228 96.9067 26.8455C94.905 27.0396 92.8904 27.2788 90.8867 27.5611C91.7304 25.5798 92.6789 23.6459 93.728 21.7653Z" fill="white"/>
<path d="M108.917 117.226C109.69 117.514 110.533 117.55 111.327 117.33C112.121 117.111 112.826 116.646 113.34 116.002C113.855 115.359 114.153 114.57 114.193 113.747C114.233 112.924 114.012 112.109 113.563 111.419C113.113 110.729 112.456 110.198 111.687 109.902C110.918 109.607 110.075 109.561 109.279 109.773C108.483 109.984 107.773 110.441 107.252 111.079C106.73 111.717 106.423 112.503 106.374 113.325C106.325 114.162 106.545 114.993 107.003 115.695C107.461 116.397 108.132 116.934 108.917 117.226ZM111.986 112.121C112.295 112.462 112.488 112.892 112.538 113.349C112.587 113.806 112.49 114.268 112.26 114.666C112.031 115.065 111.68 115.38 111.26 115.567C110.84 115.754 110.371 115.803 109.921 115.706C109.568 115.648 109.234 115.505 108.948 115.29C108.663 115.074 108.433 114.793 108.28 114.469C108.127 114.145 108.055 113.789 108.07 113.432C108.084 113.074 108.186 112.725 108.365 112.416C108.544 112.106 108.795 111.844 109.098 111.652C109.4 111.461 109.745 111.346 110.102 111.317C110.458 111.288 110.817 111.346 111.146 111.486C111.476 111.626 111.766 111.844 111.993 112.121H111.986Z" fill="white"/>
<path d="M92.2998 141.093C92.351 141.277 92.461 141.439 92.613 141.554C92.765 141.67 92.9506 141.732 93.1415 141.732C93.3324 141.732 93.518 141.67 93.67 141.554C93.822 141.439 93.932 141.277 93.9832 141.093C94.0541 139.946 94.0621 138.797 94.0072 137.649C95.1531 137.649 96.3121 137.689 97.4771 137.715C97.7036 137.72 97.9228 137.635 98.0865 137.478C98.2501 137.321 98.3449 137.106 98.3498 136.879C98.3547 136.653 98.2694 136.434 98.1127 136.27C97.9559 136.106 97.7406 136.012 97.5141 136.007C96.3462 135.94 95.1769 135.902 94.0072 135.894C94.0621 134.705 94.0541 133.514 93.9832 132.326C93.9196 132.103 93.7703 131.915 93.568 131.802C93.3657 131.69 93.127 131.662 92.9043 131.725C92.7329 131.772 92.5803 131.872 92.468 132.009C92.3557 132.147 92.2892 132.317 92.2778 132.494V135.905C91.3568 135.92 90.4362 135.953 89.5165 136.006C89.3355 136.011 89.1607 136.073 89.0163 136.182C88.8719 136.291 88.7649 136.443 88.7103 136.616C88.6557 136.788 88.6561 136.974 88.7114 137.146C88.7667 137.318 88.8743 137.469 89.0191 137.578C89.3094 137.981 89.4485 137.78 92.2778 137.683C92.2828 139.957 92.2468 140.911 92.3008 141.094L92.2998 141.093Z" fill="white"/>
<path d="M245.969 99.6771V95.6948C245.967 95.4937 245.894 95.2997 245.763 95.1468C245.632 94.994 245.452 94.892 245.254 94.859C245.055 94.8259 244.852 94.8637 244.678 94.9659C244.505 95.068 244.373 95.228 244.306 95.4176C244.21 95.6047 244.24 95.3545 244.24 99.8082C243.04 99.9265 241.847 100.113 240.667 100.366C240.509 100.369 240.356 100.417 240.225 100.505C240.094 100.593 239.99 100.716 239.927 100.861C239.864 101.005 239.844 101.165 239.868 101.321C239.893 101.476 239.962 101.622 240.067 101.74C240.178 101.848 240.31 101.933 240.454 101.989C240.599 102.045 240.753 102.071 240.908 102.065C241.008 102.044 241.098 101.991 241.164 101.913C242.182 101.722 243.209 101.577 244.241 101.48V105.568C244.261 105.769 244.35 105.957 244.494 106.1C244.637 106.243 244.825 106.332 245.027 106.351C245.228 106.37 245.43 106.319 245.598 106.206C245.766 106.094 245.889 105.926 245.948 105.732C245.999 105.557 245.971 105.469 245.971 101.365C247.193 101.314 248.418 101.329 249.639 101.409C249.848 101.384 250.041 101.284 250.183 101.128C250.324 100.972 250.404 100.769 250.408 100.559C250.412 100.348 250.34 100.143 250.204 99.981C250.069 99.8194 249.88 99.7121 249.672 99.6791C248.439 99.6149 247.203 99.6142 245.971 99.6771H245.969Z" fill="white"/>
<path d="M225.833 39.2366C226.491 39.2307 227.14 39.094 227.744 38.8344C228.349 38.5749 228.895 38.1977 229.352 37.7249C229.809 37.2521 230.167 36.6931 230.406 36.0804C230.644 35.4677 230.759 34.8137 230.742 34.1564C230.714 33.1768 230.38 32.2304 229.788 31.4498C229.195 30.6692 228.373 30.0933 227.437 29.8028C227.378 29.7086 227.294 29.6326 227.194 29.583C227.094 29.5334 226.983 29.5121 226.872 29.5216C225.903 29.6098 224.963 29.8977 224.112 30.3673C223.26 30.8369 222.515 31.4779 221.923 32.2498C221.48 32.9421 221.233 33.7417 221.209 34.5633C221.184 35.3849 221.383 36.1977 221.785 36.915C222.186 37.6323 222.775 38.2272 223.488 38.6362C224.201 39.0452 225.011 39.2521 225.833 39.2366ZM226.727 31.3971C227.312 31.5574 227.838 31.8861 228.238 32.3424C228.639 32.7986 228.896 33.3625 228.979 33.9638C229.062 34.5652 228.966 35.1776 228.704 35.7252C228.442 36.2727 228.025 36.7312 227.504 37.0438C226.977 37.4138 226.343 37.5998 225.7 37.573C225.057 37.5462 224.44 37.3082 223.946 36.8956C223.481 36.4997 223.159 35.9634 223.027 35.3678C222.895 34.7722 222.961 34.1499 223.214 33.5949C223.604 32.9941 224.12 32.4857 224.727 32.1054C225.334 31.7251 226.017 31.482 226.728 31.3931L226.727 31.3971Z" fill="white"/>
<path d="M238.2 21.7192C241.437 20.8837 244.816 20.7533 248.107 21.3369C248.266 21.3506 248.426 21.3195 248.569 21.2472C248.711 21.1748 248.83 21.0641 248.913 20.9274C248.996 20.7908 249.038 20.6338 249.036 20.4741C249.035 20.3144 248.988 20.1584 248.902 20.0239L243.445 11.7271C243.367 11.6024 243.259 11.4994 243.13 11.4277C243.002 11.3559 242.858 11.3176 242.711 11.3164C242.564 11.3152 242.419 11.3511 242.289 11.4208C242.16 11.4905 242.05 11.5917 241.97 11.7151C240.16 14.5189 238.56 17.4526 237.181 20.4922C237.107 20.6435 237.078 20.8131 237.097 20.9806C237.117 21.148 237.185 21.3062 237.292 21.436C237.4 21.5659 237.543 21.6618 237.704 21.7122C237.865 21.7626 238.037 21.7654 238.199 21.7202L238.2 21.7192ZM239.339 19.7176C240.317 17.672 241.416 15.6862 242.63 13.7707L246.339 19.3763C243.999 19.155 241.64 19.2695 239.332 19.7166L239.339 19.7176Z" fill="white"/>
<path d="M299.886 164.457C298.663 164.787 298.629 165.331 269.212 177.489C274.428 169.868 279.535 162.103 284.93 154.677C285.027 154.536 285.091 154.373 285.115 154.203C285.14 154.033 285.125 153.86 285.071 153.696C285.017 153.533 284.926 153.384 284.805 153.262C284.684 153.14 284.537 153.047 284.374 152.992C284.374 152.992 210.299 124.024 205.315 122.36C205.076 122.282 204.816 122.29 204.582 122.383C204.347 122.475 204.153 122.647 204.031 122.868C203.362 123.966 202.639 125.03 201.866 126.057C198.821 121.498 195.763 116.958 192.69 112.435C193.02 110.339 193.321 108.213 193.583 106.11C198.474 107.161 203.571 106.673 208.174 104.713C211.081 103.46 213.531 101.339 215.187 98.6412C216.59 95.8749 217.37 92.8349 217.471 89.7349C218.192 81.2269 217.958 72.6649 216.773 64.209C216.9 63.4144 215.605 62.4226 215.159 62.1884C215.154 60.8745 214.873 59.5764 214.335 58.3777C213.797 57.1791 213.013 56.1065 212.035 55.2292C211.057 54.3518 209.906 53.6892 208.656 53.284C207.407 52.8789 206.086 52.7401 204.779 52.8768C202.303 48.1089 194.999 47.7566 191.71 52.6336C188.884 35.0841 182.836 18.209 173.871 2.85982C171.292 -1.50675 167.68 -0.163652 166.649 2.20329C158.74 15.2851 153.117 29.6177 150.019 44.587C149.594 44.5877 149.171 44.634 148.756 44.7251C146.358 38.494 137.378 37.5452 132.863 43.1258C132.218 43.9682 131.759 44.9385 131.518 45.9721C131.277 47.0056 131.259 48.0787 131.466 49.1197C129.379 49.4374 127.423 50.3322 125.819 51.703C124.214 53.0737 123.024 54.8659 122.384 56.877C121.998 57.2177 121.716 57.6618 121.573 58.1571C121.447 58.2484 121.343 58.3672 121.269 58.5045C121.196 58.6418 121.154 58.7941 121.148 58.9497C121.148 66.7531 121.148 70.6803 120.652 76.2399C120.39 78.6127 120.285 81.0001 120.338 83.3867C120.495 86.6126 121.649 89.7104 123.64 92.2533C125.631 94.7962 128.362 96.6591 131.456 97.5854C135.263 98.7453 139.278 99.0612 143.22 98.5111C143.36 99.2617 143.524 100.013 143.716 100.771C144.324 102.683 145.357 104.432 146.737 105.888C147.022 108.197 147.354 110.542 147.724 112.874C147.412 115.289 145.565 117.497 144.177 119.646L138.722 128.143C109.223 141.704 88.5768 149.761 66.7569 158.231C66.6128 158.276 66.479 158.348 66.3631 158.445C66.2473 158.542 66.1517 158.66 66.082 158.794C66.0123 158.928 65.9698 159.074 65.957 159.225C65.9442 159.375 65.9613 159.526 66.0073 159.67C66.1825 160.194 66.2605 159.736 79.8046 181.933C84.1842 189.114 88.7109 196.531 93.3207 203.704C92.2555 203.811 91.2159 204.097 90.2452 204.548C61.1774 187.447 53.0307 183.271 38.9992 175.766C38.8049 175.571 38.5485 175.45 38.2743 175.424C38.0002 175.398 37.7255 175.468 37.4976 175.623C37.2698 175.777 37.1031 176.007 37.0265 176.271C36.9498 176.536 36.9679 176.819 37.0776 177.071C50.2755 202.991 65.1446 227.503 79.8737 251.082C79.9642 251.234 80.0827 251.368 80.223 251.475C97.9455 263.391 126.446 282.562 143.002 295.941C146.77 298.657 150.19 301.824 153.188 305.371C153.509 305.808 154.411 306.084 154.798 305.752C168.528 299.577 245.612 266.333 246.786 265.785C247.672 265.474 248.493 265.005 249.212 264.402C249.822 263.616 245.844 271.082 301.082 166.305C301.928 165.786 300.983 163.921 299.887 164.457H299.886ZM156.458 302.516C167.112 272.748 192.609 212.091 192.702 211.911C192.901 211.527 210.516 203.751 297.991 167.676C290.482 181.996 249.361 259.967 247.844 262.592C247.703 262.945 253.201 260.747 156.458 302.516ZM136.467 131.655L131.671 139.119C131.543 139.283 131.466 139.481 131.447 139.688C131.428 139.894 131.47 140.102 131.566 140.287C131.662 140.471 131.81 140.623 131.99 140.726C132.171 140.829 132.377 140.877 132.585 140.866C139.556 140.619 146.494 139.792 153.327 138.393C153.651 139.309 154.172 140.144 154.853 140.838C151.816 142.615 149.443 145.336 148.095 148.587C146.748 151.839 146.501 155.441 147.392 158.845C148.136 161.596 150.324 164.115 149.322 165.787C148.464 167.212 145.118 167.346 143.175 168.215C141.497 168.94 139.683 170.684 140.514 174.883C141.119 177.776 142.399 179.675 141.456 186.322C141.2 188.329 140.559 190.267 139.567 192.031C139.27 192.542 138.874 192.988 138.401 193.343C137.929 193.698 137.39 193.955 136.816 194.097C134.847 194.353 133.987 191.488 132.005 189.922C130.786 188.962 129.357 188.304 127.835 188C126.408 187.694 124.928 187.726 123.516 188.094C122.103 188.461 120.796 189.155 119.699 190.118C118.603 191.082 117.747 192.289 117.2 193.642C116.654 194.996 116.432 196.459 116.552 197.913C111.686 194.136 107.041 192.941 102.714 194.363C100.739 194.994 99.0515 196.306 97.9529 198.065C96.8543 199.824 96.4158 201.916 96.7155 203.968C96.4532 203.896 96.192 203.837 95.9208 203.793C95.8948 203.618 69.8505 161.596 68.7776 159.917C91.6623 151.255 114.302 141.658 136.467 131.655ZM123.035 73.8479C123.535 73.8848 124.039 73.8524 124.53 73.7519C125.439 73.6522 126.358 73.7383 127.232 74.0051C128.156 74.4708 128.913 75.21 129.401 76.1218C130.763 78.0273 132.08 79.5606 134.361 79.5606C134.439 79.5628 134.517 79.5557 134.593 79.5396C137.285 78.9371 137.693 77.7271 139.854 77.7511C140.891 78.0298 141.91 78.3704 142.906 78.771C142.707 82.449 142.622 86.123 142.651 89.774C142.529 91.9499 142.602 94.1324 142.869 96.2953C138.618 96.9213 134.276 96.381 130.307 94.732C128.608 93.9833 127.083 92.8887 125.831 91.5181C124.578 90.1475 123.624 88.531 123.031 86.7715C121.84 82.7442 122.752 78.1444 123.036 73.8529L123.035 73.8479ZM143.364 72.4408C143.189 72.3707 142.48 72.0405 141.778 71.8173C138.399 70.8255 137.238 73.4276 135.819 73.913C135.559 73.9896 135.282 73.9931 135.019 73.9233C134.757 73.8534 134.518 73.7127 134.33 73.5167C132.584 72.2396 132.839 72.0204 131.833 70.4672C131.43 69.8755 130.88 69.3992 130.237 69.085C129.594 68.7708 128.88 68.6298 128.165 68.6757C125.434 68.6757 124.349 69.025 123.275 67.0324C123.299 65.375 123.31 63.6936 123.313 62.0253C128.479 67.1945 136.635 68.0682 143.921 67.1615C143.709 68.9196 143.524 70.681 143.366 72.4458L143.364 72.4408ZM156.516 29.6187C160.173 33.0225 166.538 34.0684 171.478 33.7191C176.918 33.3328 180.987 32.0237 183.577 29.4146C186.271 37.6698 188.335 46.1176 189.751 54.6852C188.016 55.4859 186.567 56.7969 185.597 58.4431C184.627 60.0893 184.183 61.9923 184.323 63.8978C183.753 64.5133 183.409 65.3046 183.347 66.1416C183.508 64.7371 183.154 63.3221 182.352 62.1584C182.263 59.7626 181.335 57.4742 179.729 55.6943C178.123 53.9144 175.942 52.7564 173.567 52.4234C173.73 47.8727 169.273 44.4739 164.798 44.2147C160.213 43.9705 155.525 47.1711 155.315 51.8379C153.549 52.2096 151.892 52.987 150.477 54.1088C151.814 45.7949 153.835 37.6054 156.518 29.6237L156.516 29.6187ZM201.326 52.0521C201.835 52.3939 202.273 52.8309 202.615 53.3391C201.181 53.7961 199.907 54.6555 198.947 55.8152C197.361 54.5841 195.409 53.9171 193.401 53.9196C193.734 53.2167 194.275 52.6325 194.95 52.2453L195.02 52.2012C195.93 51.5344 197.023 51.163 198.151 51.1371C199.279 51.1111 200.388 51.4319 201.328 52.0561L201.326 52.0521ZM208.101 55.2517C212.104 56.5017 215.563 61.679 210.83 67.3826C207.879 68.555 204.723 69.1234 201.549 69.054C201.178 68.8918 200.845 68.6538 200.571 68.3554C201.766 66.7838 202.412 64.8633 202.409 62.8891C202.406 60.9149 201.754 58.9964 200.554 57.4285C201.619 55.2177 205.551 54.4941 208.103 55.2577L208.101 55.2517ZM205.516 124.76L282.246 154.569C276.457 162.552 271.127 170.79 265.565 178.845C265.346 179.164 266.962 178.421 247.536 186.433C242.995 179.185 232.342 177.642 221.864 187.097C222.131 184.626 221.629 182.132 220.426 179.957C219.223 177.782 217.378 176.032 215.143 174.945C212.908 173.857 210.392 173.487 207.938 173.884C205.484 174.28 203.213 175.425 201.434 177.16C200.201 178.339 197.958 181.061 196.287 180.608C195.783 180.463 195.375 179.847 195.092 178.836C194.742 177.127 194.551 175.39 194.52 173.646C194.426 172.356 193.938 171.126 193.122 170.123C192.698 169.648 192.219 169.226 191.694 168.866C189.979 167.584 189.434 166.983 191.066 163.626C191.792 162.349 192.293 160.956 192.547 159.508C193.209 154.864 192.232 150.134 189.786 146.132C190.625 144.852 190.496 145.143 195.548 138.385L209.027 139.826C209.223 139.824 209.414 139.769 209.581 139.668C209.748 139.568 209.885 139.424 209.977 139.252C210.07 139.08 210.115 138.886 210.108 138.691C210.1 138.496 210.041 138.307 209.935 138.143C207.689 134.781 205.445 131.419 203.203 128.055C204.089 126.841 204.696 126.014 205.517 124.757L205.516 124.76ZM146.615 280.115C143.744 271.985 128.823 229.15 127.511 227.722C127.006 227.175 126.424 226.704 125.783 226.325C124.319 225.313 122.831 224.337 121.32 223.396C120.309 222.001 119.731 220.34 119.657 218.618C119.6 216.393 120.262 214.209 121.545 212.389C123.735 209.054 128.436 205.915 131.721 208.42C131.953 208.556 132.227 208.6 132.49 208.543C132.753 208.486 132.985 208.333 133.139 208.113C133.201 208.003 133.24 207.881 133.254 207.756C133.267 207.63 133.256 207.503 133.22 207.382C133.184 207.261 133.124 207.148 133.043 207.051C132.963 206.954 132.864 206.873 132.752 206.815C126.493 201.74 115.216 211.682 117.88 221.262C117.321 220.912 101.726 211.34 92.6652 205.994C93.6073 205.783 94.5819 205.761 95.5325 205.93C96.4831 206.099 97.3907 206.455 98.2027 206.977C98.4496 207.112 98.7371 207.152 99.0115 207.09C99.2859 207.029 99.5285 206.869 99.6939 206.642C99.7948 206.464 99.8451 206.263 99.8393 206.059C99.8335 205.855 99.7718 205.657 99.6609 205.486C97.0938 201.743 99.9191 196.878 104.366 196.154C108.435 195.369 112.587 197.052 117.432 201.445C117.593 201.656 117.826 201.799 118.087 201.847C118.348 201.894 118.617 201.843 118.841 201.703C119.066 201.563 119.23 201.344 119.302 201.089C119.374 200.834 119.348 200.561 119.23 200.324C118.534 198.851 118.345 197.189 118.693 195.597C119.042 194.005 119.908 192.573 121.156 191.526C122.405 190.478 123.965 189.874 125.593 189.807C127.221 189.74 128.826 190.214 130.156 191.156C132.203 192.529 133.567 196.625 137.128 196.287C139.802 196.034 141.785 193.774 143.018 189.581C144.184 185.902 144.4 181.989 143.645 178.204C143.044 175.328 141.135 171.629 143.935 170.26C145.797 169.329 148.952 169.643 150.792 167.525C153.237 164.643 150.374 160.965 149.69 158.618C148.881 155.488 149.135 152.179 150.412 149.209C151.689 146.239 153.916 143.777 156.744 142.211C157.327 142.498 157.952 142.691 158.596 142.782C157.165 143.89 156.23 145.518 155.995 147.313C155.76 149.107 156.244 150.922 157.342 152.36C158.073 153.268 159.002 153.998 160.057 154.493C160.531 154.741 161.07 155.016 161.161 155.379C161.227 155.649 161.198 155.738 160.671 156.243C159.679 157.195 157.672 158.058 157.541 160.109C157.415 162.071 159.288 163.592 161.078 164.34C162.362 164.874 163.596 165.255 164.047 166.163C165.472 168.984 158.435 171.279 159.918 176.045C160.367 176.977 160.996 177.812 161.768 178.502C162.54 179.191 163.441 179.721 164.419 180.061C165.525 180.536 166.549 181.184 167.45 181.982C167.91 182.5 168.176 183.161 168.203 183.852C168.23 184.544 168.017 185.223 167.6 185.776C167.281 186.412 167.094 187.107 167.052 187.818C167.01 188.529 167.114 189.241 167.356 189.911C167.533 190.242 167.786 190.527 168.094 190.743C168.401 190.959 168.755 191.1 169.127 191.154C170.175 191.43 170.997 190.031 170.213 189.353C170.018 188.91 170.037 188.892 170.265 188.594C170.509 188.268 170.795 187.974 171.113 187.72C172.403 186.493 173.607 185.179 174.716 183.787C175.471 183.019 176.066 182.109 176.465 181.108C176.864 180.108 177.06 179.039 177.041 177.962C176.96 177.46 176.771 176.982 176.488 176.56C176.205 176.138 175.834 175.782 175.4 175.517C174.504 174.962 173.62 174.84 173.349 174.12C172.515 171.912 178.45 169.713 179.266 169.333C181.46 168.516 183.258 166.892 184.294 164.792C184.681 163.866 184.746 162.835 184.476 161.868C184.207 160.9 183.62 160.051 182.81 159.457C181.05 158.507 179.17 157.797 177.221 157.347L182.341 154.433C183.972 153.54 186.707 152.044 185.215 149.07C184.034 146.711 179.792 145.264 179.952 143.361C181.158 143.138 182.335 142.782 183.463 142.301C186.081 144.304 188.115 146.972 189.353 150.027C190.591 153.082 190.988 156.413 190.503 159.673C190.14 161.802 187.726 164.233 188.075 167.135C188.425 170.038 191.631 170.803 192.161 172.836C192.702 174.916 191.738 184.486 197.782 182.616C199.851 181.658 201.686 180.263 203.162 178.526C204.217 177.625 205.441 176.944 206.762 176.522C208.084 176.101 209.476 175.947 210.858 176.071C213.488 176.389 215.884 177.738 217.521 179.821C219.158 181.904 219.902 184.552 219.59 187.183C219.371 188.393 219.033 189.578 218.579 190.721C218.555 190.946 218.602 191.174 218.716 191.371C218.829 191.568 219.002 191.724 219.209 191.816C219.417 191.909 219.648 191.933 219.87 191.885C220.092 191.837 220.294 191.72 220.445 191.55C223.863 187.882 228.223 184.131 233.674 183.012C235.843 182.426 238.14 182.524 240.251 183.294C242.363 184.064 244.184 185.467 245.467 187.312C245.467 187.312 218.582 198.365 208.912 202.396C208.145 200.943 207.098 199.656 205.831 198.61C204.564 197.564 203.102 196.778 201.531 196.299C199.959 195.82 198.308 195.657 196.673 195.819C195.038 195.982 193.451 196.466 192.003 197.244C191.007 197.78 191.773 199.534 192.913 198.953C195.35 197.717 198.171 197.473 200.784 198.271C203.398 199.069 205.601 200.847 206.932 203.234C202.602 205.09 198.08 206.924 193.872 208.902C192.889 209.223 191.958 209.684 191.108 210.272C190.465 210.95 189.993 211.771 189.73 212.668C183.301 227.163 165.176 272.619 160.957 283.573C159.968 283.789 158.945 283.793 157.955 283.583C156.965 283.374 156.031 282.957 155.214 282.359C154.398 281.761 153.718 280.996 153.219 280.116C152.721 279.235 152.415 278.258 152.323 277.25C152.3 276.994 152.188 276.754 152.006 276.572C151.824 276.391 151.583 276.279 151.327 276.257C151.101 276.265 150.884 276.342 150.703 276.478C150.522 276.613 150.386 276.8 150.314 277.014C149.447 278.257 148.142 279.935 146.615 280.116V280.115ZM144.326 63.9899C144.27 64.3972 144.214 64.8015 144.162 65.2129L143.515 65.2529C144.42 63.3322 144.795 61.2044 144.601 59.0899C144.407 56.9755 143.652 54.9513 142.413 53.227C143.776 52.1001 145.47 51.4496 147.237 51.3745C147.702 51.3326 148.171 51.346 148.634 51.4146C148.301 53.2382 148.001 55.0676 147.734 56.9021C147.734 57.0003 147.747 57.0982 147.771 57.1933C147.333 57.9097 146.973 58.671 146.697 59.4642C145.983 59.9877 145.398 60.6679 144.987 61.4526C144.576 62.2372 144.351 63.1055 144.327 63.9909L144.326 63.9899ZM168.724 72.1646C167.354 71.6203 166.211 70.6237 165.485 69.3402C166.046 68.3718 166.473 67.3319 166.755 66.2487C167.237 64.7589 167.399 63.1841 167.229 61.6274C167.06 60.0708 166.563 58.5675 165.772 57.2163C166.534 56.375 167.46 55.6973 168.492 55.2243C169.524 54.7513 170.642 54.493 171.777 54.4649C172.912 54.4368 174.041 54.6396 175.095 55.061C176.149 55.4823 177.107 56.1134 177.91 56.9161C179.38 58.5573 180.215 60.6696 180.266 62.8723C180.316 65.0751 179.578 67.2233 178.184 68.9299C175.316 70.7055 172.084 71.8112 168.729 72.1646H168.724ZM171.421 52.3633C168.799 52.4614 166.319 53.5784 164.508 55.4769C162.684 53.3721 160.112 52.0619 157.337 51.8249C157.599 50.2555 158.423 48.835 159.656 47.8285C160.888 46.8221 162.444 46.2985 164.035 46.3554C167.636 46.4285 171.482 48.8214 171.424 52.3653L171.421 52.3633ZM154.422 54.2689C160.386 52.6135 166.014 58.2191 164.921 64.3652C164.162 69.3392 161.834 70.4982 158.999 72.0615C155.735 71.5556 152.584 70.4812 149.691 68.8869C148.832 67.6684 148.269 66.2669 148.046 64.7932C147.822 63.3195 147.945 61.814 148.404 60.3958C148.863 58.9777 149.645 57.6858 150.69 56.6224C151.734 55.559 153.012 54.7532 154.422 54.2689ZM173.512 109.447C176.632 108.248 179.16 105.877 180.557 102.841C181.21 101.067 181.716 99.2426 182.071 97.3862C183.197 100.415 185.441 102.898 188.341 104.323C189.326 104.789 190.34 105.188 191.377 105.519C189.952 116.777 187.64 127.904 184.461 138.797C183.759 139.644 182.812 140.254 181.751 140.544C178.843 141.428 175.824 141.894 172.785 141.927C172.56 141.927 170.703 142.053 168.357 141.964C169.546 141.101 170.588 140.053 171.445 138.86C171.949 137.441 172.092 135.918 171.859 134.43C171.859 131.153 172.034 118.013 172.034 114.728C172.04 114.581 172.017 114.433 171.965 114.294C171.912 114.156 171.833 114.03 171.73 113.923C171.628 113.816 171.505 113.731 171.369 113.673C171.233 113.615 171.086 113.585 170.938 113.585C170.79 113.585 170.644 113.615 170.508 113.673C170.372 113.731 170.249 113.816 170.146 113.923C170.044 114.03 169.964 114.156 169.912 114.294C169.86 114.433 169.836 114.581 169.842 114.728C169.842 115.757 165.039 128.751 161.587 141.211C159.688 140.862 156.459 140.112 155.801 138.293C152.809 128.371 150.621 118.223 149.258 107.95C155.245 111.726 165.034 112.892 173.513 109.445L173.512 109.447ZM187.164 137.491L192.88 138.104C192.88 138.104 188.619 143.828 188.387 144.144C187.478 143.014 186.42 142.011 185.243 141.163C186.262 140.177 186.935 138.888 187.164 137.489V137.491ZM174.621 156.538C174.497 156.639 174.397 156.767 174.329 156.913C174.261 157.058 174.228 157.217 174.23 157.378C174.233 157.538 174.272 157.696 174.345 157.839C174.417 157.982 174.521 158.107 174.649 158.204C175.966 159.172 177.476 159.844 179.077 160.174C180.572 160.612 182.265 161.106 182.704 162.498C183.316 164.432 181.159 166.341 179.366 167.227C177.584 167.911 175.858 168.733 174.204 169.684C173.455 170.122 172.813 170.721 172.327 171.439C171.84 172.157 171.52 172.974 171.391 173.832C171.411 174.531 171.645 175.207 172.061 175.769C172.477 176.331 173.056 176.752 173.718 176.975C174.417 177.355 175.071 177.674 175.21 178.469C175.625 180.779 171.466 184.92 169.745 186.528C170.196 185.578 170.473 184.555 170.564 183.507C170.4 182.579 170.008 181.707 169.423 180.968C168.838 180.23 168.078 179.649 167.212 179.277C165.403 178.114 163.239 177.561 162.186 176.028C161.094 174.51 161.847 173.394 163.7 171.381C164.097 170.947 164.485 170.525 164.727 170.199C165.434 169.508 165.897 168.607 166.046 167.63C166.195 166.653 166.022 165.654 165.553 164.784C164.33 162.975 162.191 162.754 160.801 161.892C159.003 160.778 159.46 160.035 159.634 159.735C160.168 159.091 160.809 158.545 161.531 158.122C162.199 157.746 162.709 157.141 162.968 156.419C163.226 155.697 163.216 154.906 162.938 154.191C162.398 153.363 161.617 152.721 160.701 152.352C159.899 151.936 159.231 151.303 158.772 150.525C158.313 149.747 158.081 148.856 158.105 147.953C158.128 147.05 158.404 146.171 158.903 145.418C159.401 144.665 160.101 144.067 160.923 143.692C160.649 144.519 160.441 145.365 160.3 146.224C160.289 146.429 160.335 146.633 160.434 146.813C160.533 146.993 160.681 147.141 160.86 147.241C161.039 147.342 161.242 147.39 161.448 147.38C161.653 147.371 161.851 147.304 162.02 147.188C163.35 146.197 164.652 145.168 165.923 144.102C166.952 144.177 167.981 144.208 168.948 144.192C171.919 144.341 174.898 144.187 177.839 143.732C177.966 147.297 183.751 148.528 183.493 150.99C183.476 151.143 183.427 151.291 183.349 151.425C183.272 151.558 183.167 151.674 183.043 151.766C181.803 152.55 183.177 151.677 174.62 156.537L174.621 156.538ZM184.751 98.2069C182.873 95.2575 183.212 91.6735 183.226 86.7835C183.401 84.4886 183.531 82.1657 183.599 79.8849C185.244 80.7316 187.863 80.077 189.592 79.3855C189.956 79.1861 190.364 79.0816 190.779 79.0816C191.194 79.0816 191.602 79.1861 191.965 79.3855C194.478 81.307 196.604 84.9951 199.84 83.9892C201.983 83.3217 202.5 82.3699 204.351 81.7814C206.041 81.4321 206.634 82.9164 209.052 83.2066C211.167 83.5959 212.514 82.2448 213.57 80.3773C213.766 79.9214 214.069 79.5195 214.453 79.206C214.837 78.8925 215.292 78.6766 215.778 78.5768C216.004 83.7269 215.662 88.8862 214.758 93.9614C211.769 107.485 190.257 106.855 184.75 98.2039L184.751 98.2069ZM211.73 75.7425C211.288 76.4198 210.689 76.9796 209.983 77.3738C209.299 77.7811 208.935 76.8774 208.021 76.3139C207.575 76.0048 207.071 75.7896 206.539 75.6816C206.007 75.5735 205.459 75.5748 204.928 75.6854C204.062 76.0239 203.307 76.598 202.75 77.3428C202.133 77.9792 201.408 78.5029 200.611 78.8901C200.115 79.2644 199.496 79.4352 198.879 79.3672C198.261 79.2993 197.694 78.9979 197.292 78.5248C196.218 76.7473 196.298 75.6014 194.631 74.5255C193.937 74.2565 193.198 74.1243 192.455 74.1362C191.391 74.1287 190.342 74.3874 189.403 74.8888C188.809 75.0949 188.186 75.2063 187.558 75.2191C185.757 75.174 184.984 73.5217 184.362 71.8503C184.591 70.306 184.853 68.7558 185.15 67.2225C186.922 68.5467 188.969 69.4567 191.14 69.8857C198.417 71.9294 210.287 72.0114 214.971 67.1434C215.207 69.1121 215.393 71.0867 215.527 73.0483C214.079 72.4318 212.446 74.3664 211.729 75.7395L211.73 75.7425ZM199.737 61.9001C199.98 63.2249 199.823 64.5922 199.286 65.8273C198.748 67.0624 197.855 68.1092 196.719 68.8338C193.354 68.5032 190.074 67.5785 187.031 66.1026C186.63 65.162 186.43 64.1479 186.443 63.1253C186.457 62.1027 186.684 61.0943 187.11 60.1647C187.745 58.9144 188.753 57.8929 189.995 57.2425C191.237 56.592 192.651 56.3448 194.04 56.5354C195.429 56.726 196.724 57.3449 197.745 58.3059C198.766 59.2669 199.462 60.5222 199.736 61.8971L199.737 61.9001ZM146.873 49.1737C144.708 49.325 142.647 50.1609 140.989 51.5607C139.979 50.6414 138.797 49.9308 137.512 49.4698C136.226 49.0088 134.862 48.8064 133.499 48.8745C132.603 41.7857 142.552 39.2686 146.218 44.4979C146.641 45.1904 146.917 45.9624 147.029 46.766C147.142 47.5696 147.088 48.3877 146.872 49.1697L146.873 49.1737ZM136.694 51.4446C137.981 51.9754 139.131 52.7883 140.061 53.8234C140.991 54.8585 141.677 56.0892 142.068 57.4248C142.458 58.7604 142.544 60.1666 142.318 61.5397C142.092 62.9128 141.561 64.2177 140.764 65.358C135.585 65.435 128.484 64.8916 124.197 59.8024C124.096 53.4572 130.972 49.7272 136.692 51.4496L136.694 51.4446ZM145.788 68.2824C147.832 70.5807 150.532 72.1972 153.524 72.9142C161 75.3668 169.093 75.1646 176.437 72.3417C178.354 71.6606 180.046 70.4633 181.327 68.8819C181.502 72.1566 181.549 75.4452 181.486 78.6619C181.121 83.0895 181.311 82.3299 181.03 87.8884C180.242 88.2398 179.583 88.83 179.148 89.5758C178.638 90.5687 178.178 91.5864 177.77 92.6253C177.59 93.0913 177.296 93.5052 176.916 93.8296C176.536 94.154 176.081 94.3788 175.593 94.4837C175.104 94.5887 174.597 94.5704 174.118 94.4307C173.638 94.2909 173.201 94.0341 172.845 93.6832C172.023 93.1212 171.09 92.7413 170.11 92.5687C169.129 92.3961 168.123 92.4348 167.158 92.6824C165.319 93.5648 163.622 94.7167 162.123 96.1001C161.749 96.4749 161.282 96.7433 160.77 96.8777C160.258 97.0121 159.719 97.0076 159.21 96.8648C158.513 96.4461 157.939 95.8518 157.545 95.1414C156.963 94.2905 156.484 93.3729 156.12 92.4081C155.973 91.7444 155.666 91.1266 155.226 90.6084C154.786 90.0902 154.226 89.6874 153.595 89.4349C152.964 89.1824 152.28 89.0878 151.604 89.1595C150.928 89.2311 150.28 89.4668 149.716 89.846C149.394 89.9641 149.055 90.029 148.712 90.0382C146.77 89.8901 145.404 87.5011 144.769 85.6616C144.916 79.9019 145.258 74.0631 145.786 68.2884L145.788 68.2824ZM151.256 96.3584C151.448 96.3455 151.64 96.3726 151.82 96.4381C152.001 96.5036 152.165 96.6059 152.304 96.7387C154.346 99.1667 154.267 100.316 156.822 102.308C159.048 104.055 162.215 104.285 165.641 101.711C167.172 100.564 167.854 99.528 169.462 99.1206C169.856 99.1025 170.25 99.1639 170.619 99.3013C170.989 99.4387 171.327 99.6492 171.614 99.9203C172.073 100.374 172.623 100.727 173.227 100.956C173.83 101.185 174.476 101.286 175.121 101.251C176.156 101.114 177.138 100.711 177.971 100.081C178.804 99.451 179.46 98.6161 179.875 97.6574C179.83 97.9016 179.783 98.1448 179.734 98.387C179.235 101.351 177.67 104.03 175.334 105.921C172.158 107.937 168.502 109.07 164.743 109.203C159.504 109.746 152.422 108.424 148.662 104.798C148.629 104.761 148.59 104.728 148.554 104.695C147.474 103.632 146.596 102.383 145.962 101.007C145.619 99.9435 145.341 98.8599 145.13 97.7625C147.891 98.9014 149.875 96.6636 151.255 96.3584H151.256ZM126.025 229.665C127.967 234.206 151.174 299.76 151.246 299.947C139.466 288.595 95.2262 258.832 81.7752 249.825C67.8038 227.633 52.5613 202.147 40.6796 179.025C57.4053 187.68 124.691 226.574 126.025 229.665ZM150.691 279.452C151.31 281.416 152.582 283.109 154.295 284.25C156.009 285.392 158.061 285.914 160.111 285.729C158.157 290.828 154.357 301.098 154.183 301.573L147.218 281.818C148.588 281.398 149.798 280.574 150.692 279.453L150.691 279.452Z" fill="white"/>
<path d="M151.451 238.747C151.66 238.841 151.893 238.866 152.117 238.816C152.341 238.766 152.542 238.646 152.691 238.472C152.84 238.298 152.929 238.08 152.943 237.852C152.958 237.623 152.899 237.396 152.773 237.205C152.094 236.1 151.731 234.829 151.725 233.532C151.72 232.235 152.071 230.962 152.74 229.851C153.304 228.772 154.12 227.846 155.118 227.149C156.115 226.453 157.266 226.006 158.472 225.848C159.679 225.69 160.906 225.825 162.049 226.241C163.193 226.657 164.219 227.342 165.042 228.238C166.146 229.404 166.865 230.881 167.102 232.468C167.339 234.056 167.082 235.679 166.366 237.116C166.273 237.303 166.236 237.513 166.258 237.722C166.28 237.93 166.361 238.128 166.492 238.291C166.622 238.455 166.797 238.579 166.994 238.647C167.192 238.715 167.406 238.725 167.609 238.677C167.899 238.581 168.142 238.382 168.294 238.118C169.472 235.732 169.656 232.977 168.805 230.455C167.953 227.934 166.137 225.854 163.753 224.67C155.736 220.701 147.686 228.776 149.97 236.197C147.758 235.918 145.517 236.393 143.608 237.545C141.699 238.698 140.235 240.46 139.451 242.547C137.079 248.874 140.966 256.462 147.183 255.247C147.311 255.211 147.429 255.147 147.528 255.06C147.628 254.972 147.707 254.863 147.759 254.741C147.868 254.595 147.929 254.419 147.933 254.238C147.938 254.056 147.885 253.877 147.783 253.727C147.681 253.576 147.534 253.461 147.364 253.398C147.193 253.335 147.007 253.326 146.831 253.374C140.293 254.056 138.372 243.049 144.701 239.297C145.709 238.696 146.842 238.334 148.012 238.239C149.182 238.143 150.359 238.317 151.451 238.747Z" fill="white"/>
<path d="M240.287 207.891C240.257 207.783 240.197 207.686 240.116 207.61C240.034 207.534 239.934 207.482 239.824 207.459C239.715 207.436 239.602 207.443 239.497 207.48C239.391 207.517 239.298 207.581 239.227 207.667L217.881 233.423C217.791 233.531 217.742 233.668 217.742 233.809C217.741 233.95 217.789 234.086 217.878 234.196C217.967 234.305 218.091 234.381 218.229 234.41C218.367 234.438 218.51 234.418 218.635 234.353C220.586 233.333 223.389 231.908 225.082 231.131L210.195 264.823C210.146 264.935 210.132 265.058 210.154 265.178C210.175 265.298 210.232 265.409 210.317 265.496C210.402 265.583 210.511 265.643 210.63 265.668C210.749 265.694 210.873 265.683 210.986 265.637C226.575 259.35 225.506 259.798 225.644 259.444L238.109 227.552L244.586 225.309C244.734 225.258 244.856 225.152 244.928 225.014C245 224.876 245.016 224.715 244.974 224.565L240.287 207.891Z" fill="white"/>
<path d="M96.8035 230.568L102.509 234.596C102.632 234.68 102.782 234.716 102.93 234.698C103.078 234.68 103.215 234.608 103.313 234.496C103.412 234.384 103.467 234.24 103.467 234.091C103.467 233.942 103.412 233.797 103.313 233.686L84.7496 213.211C84.6727 213.129 84.5746 213.069 84.4661 213.039C84.3576 213.009 84.243 213.01 84.1347 213.04C84.0264 213.071 83.9287 213.131 83.8523 213.214C83.776 213.297 83.7239 213.399 83.7018 213.509L81.9553 222.874C81.9318 223.002 81.9498 223.134 82.0066 223.252C82.0635 223.369 82.1564 223.465 82.2716 223.525L87.614 226.344L96.6113 249.53C96.7004 249.762 95.8867 249.063 107.043 257.694C107.15 257.776 107.281 257.821 107.416 257.82C107.55 257.82 107.681 257.775 107.788 257.693C107.895 257.611 107.971 257.496 108.006 257.365C108.04 257.235 108.031 257.097 107.979 256.973L96.8035 230.568Z" fill="white"/>
<path d="M331.544 52.9809C328.599 54.7912 325.756 56.7618 323.028 58.8837C321.797 59.8055 273.481 94.8502 269.468 98.0928C269.391 98.1576 269.328 98.2369 269.282 98.3262C269.235 98.4154 269.207 98.5129 269.199 98.613C269.19 98.7132 269.202 98.814 269.232 98.9098C269.263 99.0056 269.312 99.0944 269.376 99.1712C269.441 99.248 269.52 99.3113 269.61 99.3575C269.699 99.4037 269.796 99.4318 269.897 99.4403C269.997 99.4488 270.098 99.4375 270.193 99.4071C270.289 99.3766 270.378 99.3276 270.455 99.2628C308.276 71.8914 327.297 59.252 332.701 54.5372C332.872 54.3721 332.977 54.1503 332.997 53.9133C333.016 53.6762 332.949 53.4402 332.807 53.2494C332.665 53.0586 332.458 52.926 332.225 52.8766C331.993 52.8272 331.75 52.8643 331.543 52.9809H331.544Z" fill="white"/>
<path d="M312.132 108.534C302.301 111.648 292.696 115.432 283.384 119.862C283.232 119.944 283.112 120.074 283.044 120.233C282.976 120.392 282.963 120.569 283.008 120.735C283.052 120.902 283.152 121.049 283.291 121.152C283.43 121.255 283.599 121.308 283.772 121.303C284.47 121.303 286.489 119.654 312.64 110.102C312.837 110.025 312.996 109.877 313.087 109.687C313.177 109.496 313.191 109.279 313.126 109.078C313.061 108.878 312.922 108.71 312.737 108.609C312.552 108.508 312.336 108.481 312.132 108.534Z" fill="white"/>
<path d="M66.5177 137.146C66.7657 137.172 67.0149 137.109 67.2198 136.966C67.4246 136.824 67.5715 136.613 67.6334 136.372C67.6954 136.13 67.6683 135.874 67.5572 135.651C67.446 135.428 67.2582 135.252 67.0281 135.156C61.3705 132.991 15.2648 118.914 15.0906 118.858C10.403 117.296 5.57728 116.185 0.678843 115.539C0.587105 115.542 0.496783 115.562 0.413034 115.6C0.329286 115.637 0.25375 115.691 0.190741 115.758C0.127731 115.825 0.0784808 115.903 0.0458028 115.989C0.0131248 116.075 -0.00234187 116.166 0.000286719 116.258C0.00291531 116.349 0.0235877 116.44 0.0611228 116.523C0.0986578 116.607 0.152321 116.683 0.219048 116.746C0.285775 116.809 0.364259 116.858 0.45002 116.891C0.53578 116.923 0.627138 116.939 0.718875 116.936C4.93131 117.669 9.07781 118.74 13.118 120.139C52.3181 133.407 64.8934 136.966 66.5177 137.146Z" fill="white"/>
<path d="M47.205 88.1937C55.0032 93.6821 62.2683 99.8911 68.9047 106.739C69.0629 106.89 69.2735 106.975 69.4925 106.975C69.7116 106.975 69.9221 106.89 70.0801 106.738C70.238 106.587 70.3312 106.38 70.3401 106.161C70.349 105.942 70.2729 105.728 70.1277 105.564C63.7504 98.2918 56.2551 92.0822 47.9236 87.1689C47.281 86.7776 46.5154 87.7133 47.205 88.1937Z" fill="white"/>
</svg>
