<svg width="16" height="6" viewBox="0 0 16 6" fill="none" xmlns="http://www.w3.org/2000/svg">
<g clip-path="url(#clip0_2048_4908)">
<path d="M6.93302 5.25606H5.6369L6.44759 0.093254H7.74363L6.93302 5.25606Z" fill="#FF9214"/>
<path d="M11.632 0.219801C11.3764 0.115339 10.9709 0 10.4695 0C9.18957 0 8.28823 0.702984 8.28271 1.70804C8.27207 2.44957 8.92803 2.86143 9.41864 3.10868C9.92009 3.36133 10.0905 3.52623 10.0905 3.75144C10.0854 4.09731 9.68534 4.25674 9.31218 4.25674C8.79471 4.25674 8.51745 4.17454 8.09609 3.98212L7.92542 3.89963L7.74405 5.05857C8.04804 5.20121 8.6081 5.32779 9.18957 5.33333C10.5495 5.33333 11.4349 4.64123 11.4454 3.57018C11.4506 2.98246 11.1042 2.53213 10.3575 2.16414C9.90414 1.92791 9.62652 1.76863 9.62652 1.52693C9.63183 1.3072 9.86133 1.08214 10.3731 1.08214C10.7944 1.07112 11.104 1.17544 11.3385 1.27983L11.4558 1.33465L11.632 0.219801Z" fill="#FF9214"/>
<path d="M13.3545 3.42706C13.4612 3.13047 13.872 1.98255 13.872 1.98255C13.8666 1.99357 13.9785 1.68048 14.0425 1.48827L14.1331 1.93313C14.1331 1.93313 14.3785 3.16894 14.4318 3.42706C14.2293 3.42706 13.6105 3.42706 13.3545 3.42706ZM14.9544 0.093254H13.9518C13.6427 0.093254 13.4078 0.186547 13.2744 0.521614L11.3492 5.25599H12.7092C12.7092 5.25599 12.9331 4.61878 12.9812 4.48154C13.1304 4.48154 14.4534 4.48154 14.6453 4.48154C14.6825 4.6628 14.8 5.25599 14.8 5.25599H16L14.9544 0.093254Z" fill="#FF9214"/>
<path d="M4.55515 0.093254L3.28583 3.6138L3.14712 2.89979C2.91245 2.07592 2.17647 1.1808 1.35516 0.735722L2.51781 5.25059H3.88841L5.92568 0.093254H4.55515Z" fill="#FF9214"/>
<path d="M2.10665 0.093254H0.0213336L0 0.19757C1.62668 0.626003 2.704 1.65873 3.14662 2.90001L2.69329 0.527235C2.61866 0.197497 2.38931 0.104131 2.10665 0.093254Z" fill="#FF9214"/>
</g>
<defs>
<clipPath id="clip0_2048_4908">
<rect width="15.75" height="5.25" fill="white" transform="scale(1.01587)"/>
</clipPath>
</defs>
</svg>
